<svg xmlns="http://www.w3.org/2000/svg" width="880" height="212" viewBox="0 0 880 212" font-family="-apple-system,BlinkMacSystemFont,Segoe UI,Helvetica,Arial,sans-serif"><rect x="0.5" y="0.5" width="879" height="211" rx="8" fill="#ffffff" stroke="#e5e7eb"/><text x="18" y="24" font-size="15" font-weight="600" fill="#111827">Capital: the cap and what the bot used</text><text x="18" y="42" font-size="11.5" fill="#6b7280">Bars are the average capital in use each day. Returns are measured against them. The line is the cap.</text><line x1="70" x2="856" y1="170.0" y2="170.0" stroke="#9ca3af" stroke-width="1"/><text x="62" y="174.0" font-size="11" text-anchor="end" fill="#6b7280">$0</text><line x1="70" x2="856" y1="134.7" y2="134.7" stroke="#e5e7eb" stroke-width="1"/><text x="62" y="138.7" font-size="11" text-anchor="end" fill="#6b7280">$20</text><line x1="70" x2="856" y1="99.3" y2="99.3" stroke="#e5e7eb" stroke-width="1"/><text x="62" y="103.3" font-size="11" text-anchor="end" fill="#6b7280">$40</text><line x1="70" x2="856" y1="64.0" y2="64.0" stroke="#e5e7eb" stroke-width="1"/><text x="62" y="68.0" font-size="11" text-anchor="end" fill="#6b7280">$60</text><rect x="73.6" y="158.6" width="15.3" height="11.4" fill="#93c5fd" fill-opacity="1.0"/><rect x="96.1" y="146.5" width="15.3" height="23.5" fill="#93c5fd" fill-opacity="1.0"/><rect x="118.5" y="146.0" width="15.3" height="24.0" fill="#93c5fd" fill-opacity="1.0"/><rect x="141.0" y="162.4" width="15.3" height="7.6" fill="#93c5fd" fill-opacity="1.0"/><rect x="163.4" y="144.7" width="15.3" height="25.3" fill="#93c5fd" fill-opacity="1.0"/><rect x="185.9" y="142.2" width="15.3" height="27.8" fill="#93c5fd" fill-opacity="1.0"/><rect x="208.3" y="144.4" width="15.3" height="25.6" fill="#93c5fd" fill-opacity="1.0"/><rect x="230.8" y="143.1" width="15.3" height="26.9" fill="#93c5fd" fill-opacity="1.0"/><rect x="253.3" y="141.4" width="15.3" height="28.6" fill="#93c5fd" fill-opacity="1.0"/><rect x="275.7" y="143.6" width="15.3" height="26.4" fill="#93c5fd" fill-opacity="1.0"/><rect x="298.2" y="120.0" width="15.3" height="50.0" fill="#93c5fd" fill-opacity="1.0"/><rect x="320.6" y="115.6" width="15.3" height="54.4" fill="#93c5fd" fill-opacity="1.0"/><rect x="343.1" y="128.2" width="15.3" height="41.8" fill="#93c5fd" fill-opacity="1.0"/><rect x="365.5" y="133.1" width="15.3" height="36.9" fill="#93c5fd" fill-opacity="1.0"/><rect x="388.0" y="118.3" width="15.3" height="51.7" fill="#93c5fd" fill-opacity="1.0"/><rect x="410.5" y="117.4" width="15.3" height="52.6" fill="#93c5fd" fill-opacity="1.0"/><rect x="432.9" y="111.2" width="15.3" height="58.8" fill="#93c5fd" fill-opacity="1.0"/><rect x="455.4" y="93.5" width="15.3" height="76.5" fill="#93c5fd" fill-opacity="1.0"/><rect x="477.8" y="77.6" width="15.3" height="92.4" fill="#93c5fd" fill-opacity="1.0"/><rect x="500.3" y="81.2" width="15.3" height="88.8" fill="#93c5fd" fill-opacity="1.0"/><rect x="522.7" y="79.3" width="15.3" height="90.7" fill="#93c5fd" fill-opacity="1.0"/><rect x="545.2" y="74.3" width="15.3" height="95.7" fill="#93c5fd" fill-opacity="1.0"/><rect x="567.7" y="75.6" width="15.3" height="94.4" fill="#93c5fd" fill-opacity="1.0"/><rect x="590.1" y="73.9" width="15.3" height="96.1" fill="#93c5fd" fill-opacity="1.0"/><rect x="612.6" y="72.5" width="15.3" height="97.5" fill="#93c5fd" fill-opacity="1.0"/><rect x="635.0" y="72.8" width="15.3" height="97.2" fill="#93c5fd" fill-opacity="1.0"/><rect x="657.5" y="80.9" width="15.3" height="89.1" fill="#93c5fd" fill-opacity="1.0"/><rect x="679.9" y="89.5" width="15.3" height="80.5" fill="#93c5fd" fill-opacity="1.0"/><rect x="702.4" y="91.6" width="15.3" height="78.4" fill="#93c5fd" fill-opacity="1.0"/><rect x="724.9" y="101.4" width="15.3" height="68.6" fill="#93c5fd" fill-opacity="1.0"/><rect x="747.3" y="93.7" width="15.3" height="76.3" fill="#93c5fd" fill-opacity="1.0"/><rect x="769.8" y="97.9" width="15.3" height="72.1" fill="#93c5fd" fill-opacity="1.0"/><rect x="792.2" y="92.7" width="15.3" height="77.3" fill="#93c5fd" fill-opacity="1.0"/><rect x="814.7" y="106.9" width="15.3" height="63.1" fill="#93c5fd" fill-opacity="1.0"/><rect x="837.1" y="98.8" width="15.3" height="71.2" fill="#93c5fd" fill-opacity="1.0"/><path d="M70.0,134.7 L92.5,134.7 L92.5,134.7 L114.9,134.7 L114.9,134.7 L137.4,134.7 L137.4,134.7 L159.8,134.7 L159.8,134.7 L182.3,134.7 L182.3,134.7 L204.7,134.7 L204.7,134.7 L227.2,134.7 L227.2,134.7 L249.7,134.7 L249.7,134.7 L272.1,134.7 L272.1,134.7 L294.6,134.7 L294.6,99.3 L317.0,99.3 L317.0,99.3 L339.5,99.3 L339.5,99.3 L361.9,99.3 L361.9,99.3 L384.4,99.3 L384.4,99.3 L406.9,99.3 L406.9,99.3 L429.3,99.3 L429.3,99.3 L451.8,99.3 L451.8,64.0 L474.2,64.0 L474.2,64.0 L496.7,64.0 L496.7,64.0 L519.1,64.0 L519.1,64.0 L541.6,64.0 L541.6,64.0 L564.1,64.0 L564.1,64.0 L586.5,64.0 L586.5,64.0 L609.0,64.0 L609.0,64.0 L631.4,64.0 L631.4,64.0 L653.9,64.0 L653.9,64.0 L676.3,64.0 L676.3,64.0 L698.8,64.0 L698.8,64.0 L721.3,64.0 L721.3,64.0 L743.7,64.0 L743.7,64.0 L766.2,64.0 L766.2,64.0 L788.6,64.0 L788.6,64.0 L811.1,64.0 L811.1,64.0 L833.5,64.0 L833.5,64.0 L856.0,64.0" fill="none" stroke="#111827" stroke-width="1.8" stroke-linejoin="round"/><text x="182.3" y="127.7" font-size="11.5" text-anchor="middle" fill="#111827" font-weight="600">$20 cap</text><text x="373.2" y="92.3" font-size="11.5" text-anchor="middle" fill="#111827" font-weight="600">$40 cap</text><text x="653.9" y="57.0" font-size="11.5" text-anchor="middle" fill="#111827" font-weight="600">$60 cap</text><rect x="811.0" y="15" width="12" height="12" rx="2" fill="#111827"/><text x="828.0" y="25" font-size="11.5" fill="#111827">Cap</text><rect x="689.0" y="15" width="12" height="12" rx="2" fill="#93c5fd"/><text x="706.0" y="25" font-size="11.5" fill="#111827">Average in use</text><text x="81.2" y="187" font-size="11" text-anchor="middle" fill="#6b7280">Sep 5</text><text x="238.4" y="187" font-size="11" text-anchor="middle" fill="#6b7280">Sep 12</text><text x="395.6" y="187" font-size="11" text-anchor="middle" fill="#6b7280">Sep 19</text><text x="552.8" y="187" font-size="11" text-anchor="middle" fill="#6b7280">Sep 26</text><text x="710.0" y="187" font-size="11" text-anchor="middle" fill="#6b7280">Oct 3</text><text x="844.8" y="187" font-size="11" text-anchor="middle" fill="#6b7280">Oct 9</text></svg>
