<svg xmlns="http://www.w3.org/2000/svg" width="880" height="346" viewBox="0 0 880 346" font-family="-apple-system,BlinkMacSystemFont,Segoe UI,Helvetica,Arial,sans-serif"><rect x="0.5" y="0.5" width="879" height="345" rx="8" fill="#ffffff" stroke="#e5e7eb"/><rect x="70" y="169.2" width="786" height="130.8" fill="#fee2e2" fill-opacity="0.75"/><text x="18" y="24" font-size="15" font-weight="600" fill="#111827">Daily P&amp;L</text><text x="18" y="42" font-size="11.5" fill="#6b7280">Trading is blue, with rebates and rewards stacked on top. Dashed lines mark versions, and the strip on top is the capital the bot could use.</text><line x1="70" x2="856" y1="300.0" y2="300.0" stroke="#e5e7eb" stroke-width="1"/><text x="62" y="304.0" font-size="11" text-anchor="end" fill="#6b7280">−$15</text><line x1="70" x2="856" y1="256.4" y2="256.4" stroke="#e5e7eb" stroke-width="1"/><text x="62" y="260.4" font-size="11" text-anchor="end" fill="#6b7280">−$10</text><line x1="70" x2="856" y1="212.8" y2="212.8" stroke="#e5e7eb" stroke-width="1"/><text x="62" y="216.8" font-size="11" text-anchor="end" fill="#6b7280">−$5</text><line x1="70" x2="856" y1="169.2" y2="169.2" stroke="#9ca3af" stroke-width="1"/><text x="62" y="173.2" font-size="11" text-anchor="end" fill="#6b7280">$0</text><line x1="70" x2="856" y1="125.6" y2="125.6" stroke="#e5e7eb" stroke-width="1"/><text x="62" y="129.6" font-size="11" text-anchor="end" fill="#6b7280">$5</text><line x1="70" x2="856" y1="82.0" y2="82.0" stroke="#e5e7eb" stroke-width="1"/><text x="62" y="86.0" font-size="11" text-anchor="end" fill="#6b7280">$10</text><text x="62.0" y="70.0" font-size="10.5" text-anchor="end" fill="#6b7280" font-weight="400">Cap</text><rect x="71.0" y="58" width="236.2" height="17" rx="3" fill="#1d4ed8" fill-opacity="0.15"/><text x="189.1" y="70.5" font-size="11" text-anchor="middle" fill="#111827" font-weight="600">$20</text><rect x="309.2" y="58" width="164.7" height="17" rx="3" fill="#1d4ed8" fill-opacity="0.21"/><text x="391.5" y="70.5" font-size="11" text-anchor="middle" fill="#111827" font-weight="600">$40</text><rect x="475.9" y="58" width="379.1" height="17" rx="3" fill="#1d4ed8" fill-opacity="0.28"/><text x="665.5" y="70.5" font-size="11" text-anchor="middle" fill="#111827" font-weight="600">$60</text><rect x="73.8" y="169.2" width="16.2" height="0.5" fill="#3b82f6" fill-opacity="1.0"/><rect x="73.8" y="169.2" width="16.2" height="0.5" fill="#059669" fill-opacity="1.0"/><rect x="73.8" y="131.6" width="16.2" height="37.6" fill="#d97706" fill-opacity="1.0"/><rect x="97.6" y="127.5" width="16.2" height="41.7" fill="#3b82f6" fill-opacity="1.0"/><rect x="97.6" y="127.5" width="16.2" height="0.5" fill="#059669" fill-opacity="1.0"/><rect x="121.4" y="169.2" width="16.2" height="31.6" fill="#3b82f6" fill-opacity="1.0"/><rect x="121.4" y="169.2" width="16.2" height="0.5" fill="#059669" fill-opacity="1.0"/><rect x="145.3" y="169.2" width="16.2" height="0.5" fill="#3b82f6" fill-opacity="1.0"/><rect x="145.3" y="169.2" width="16.2" height="0.5" fill="#059669" fill-opacity="1.0"/><rect x="169.1" y="146.4" width="16.2" height="22.8" fill="#3b82f6" fill-opacity="1.0"/><rect x="169.1" y="146.4" width="16.2" height="0.5" fill="#059669" fill-opacity="1.0"/><rect x="169.1" y="132.9" width="16.2" height="13.4" fill="#d97706" fill-opacity="1.0"/><rect x="192.9" y="169.2" width="16.2" height="16.1" fill="#3b82f6" fill-opacity="1.0"/><rect x="192.9" y="169.2" width="16.2" height="0.5" fill="#059669" fill-opacity="1.0"/><rect x="192.9" y="153.9" width="16.2" height="15.3" fill="#d97706" fill-opacity="1.0"/><rect x="216.7" y="144.5" width="16.2" height="24.7" fill="#3b82f6" fill-opacity="1.0"/><rect x="216.7" y="144.5" width="16.2" height="0.5" fill="#059669" fill-opacity="1.0"/><rect x="240.5" y="159.0" width="16.2" height="10.2" fill="#3b82f6" fill-opacity="1.0"/><rect x="240.5" y="159.0" width="16.2" height="0.5" fill="#059669" fill-opacity="1.0"/><rect x="264.4" y="169.2" width="16.2" height="13.7" fill="#3b82f6" fill-opacity="1.0"/><rect x="264.4" y="169.2" width="16.2" height="0.5" fill="#059669" fill-opacity="1.0"/><rect x="288.2" y="120.4" width="16.2" height="48.8" fill="#3b82f6" fill-opacity="1.0"/><rect x="288.2" y="120.4" width="16.2" height="0.5" fill="#059669" fill-opacity="1.0"/><rect x="312.0" y="169.2" width="16.2" height="53.8" fill="#3b82f6" fill-opacity="1.0"/><rect x="312.0" y="169.2" width="16.2" height="0.5" fill="#059669" fill-opacity="1.0"/><rect x="335.8" y="144.2" width="16.2" height="25.0" fill="#3b82f6" fill-opacity="1.0"/><rect x="335.8" y="144.2" width="16.2" height="0.5" fill="#059669" fill-opacity="1.0"/><rect x="359.6" y="104.3" width="16.2" height="64.9" fill="#3b82f6" fill-opacity="1.0"/><rect x="359.6" y="104.3" width="16.2" height="0.5" fill="#059669" fill-opacity="1.0"/><rect x="359.6" y="93.4" width="16.2" height="11.0" fill="#d97706" fill-opacity="1.0"/><rect x="383.4" y="144.7" width="16.2" height="24.5" fill="#3b82f6" fill-opacity="1.0"/><rect x="383.4" y="144.7" width="16.2" height="0.5" fill="#059669" fill-opacity="1.0"/><rect x="407.3" y="169.2" width="16.2" height="2.5" fill="#3b82f6" fill-opacity="1.0"/><rect x="407.3" y="169.2" width="16.2" height="0.5" fill="#059669" fill-opacity="1.0"/><rect x="431.1" y="159.5" width="16.2" height="9.7" fill="#3b82f6" fill-opacity="1.0"/><rect x="431.1" y="159.5" width="16.2" height="0.5" fill="#059669" fill-opacity="1.0"/><rect x="454.9" y="169.2" width="16.2" height="69.4" fill="#3b82f6" fill-opacity="1.0"/><rect x="454.9" y="169.2" width="16.2" height="0.5" fill="#059669" fill-opacity="1.0"/><rect x="478.7" y="126.9" width="16.2" height="42.3" fill="#3b82f6" fill-opacity="1.0"/><rect x="478.7" y="113.0" width="16.2" height="14.0" fill="#059669" fill-opacity="1.0"/><rect x="502.5" y="169.2" width="16.2" height="2.7" fill="#3b82f6" fill-opacity="1.0"/><rect x="502.5" y="149.6" width="16.2" height="19.6" fill="#059669" fill-opacity="1.0"/><rect x="502.5" y="127.9" width="16.2" height="21.7" fill="#d97706" fill-opacity="1.0"/><rect x="526.4" y="165.8" width="16.2" height="3.4" fill="#3b82f6" fill-opacity="1.0"/><rect x="526.4" y="149.8" width="16.2" height="16.0" fill="#059669" fill-opacity="1.0"/><rect x="550.2" y="169.2" width="16.2" height="106.7" fill="#3b82f6" fill-opacity="1.0"/><rect x="550.2" y="155.2" width="16.2" height="14.0" fill="#059669" fill-opacity="1.0"/><rect x="574.0" y="121.7" width="16.2" height="47.5" fill="#3b82f6" fill-opacity="1.0"/><rect x="574.0" y="102.7" width="16.2" height="19.0" fill="#059669" fill-opacity="1.0"/><rect x="597.8" y="119.4" width="16.2" height="49.8" fill="#3b82f6" fill-opacity="1.0"/><rect x="597.8" y="103.1" width="16.2" height="16.3" fill="#059669" fill-opacity="1.0"/><rect x="621.6" y="169.2" width="16.2" height="35.6" fill="#3b82f6" fill-opacity="1.0"/><rect x="621.6" y="151.9" width="16.2" height="17.3" fill="#059669" fill-opacity="1.0"/><rect x="645.4" y="169.2" width="16.2" height="59.1" fill="#3b82f6" fill-opacity="1.0"/><rect x="645.4" y="141.7" width="16.2" height="27.5" fill="#059669" fill-opacity="1.0"/><rect x="669.3" y="160.0" width="16.2" height="9.2" fill="#3b82f6" fill-opacity="1.0"/><rect x="669.3" y="140.0" width="16.2" height="20.1" fill="#059669" fill-opacity="1.0"/><rect x="693.1" y="125.9" width="16.2" height="43.3" fill="#3b82f6" fill-opacity="1.0"/><rect x="693.1" y="103.5" width="16.2" height="22.3" fill="#059669" fill-opacity="1.0"/><rect x="716.9" y="157.7" width="16.2" height="11.5" fill="#3b82f6" fill-opacity="1.0"/><rect x="716.9" y="130.2" width="16.2" height="27.6" fill="#059669" fill-opacity="1.0"/><rect x="740.7" y="143.7" width="16.2" height="25.5" fill="#3b82f6" fill-opacity="1.0"/><rect x="740.7" y="126.6" width="16.2" height="17.1" fill="#059669" fill-opacity="1.0"/><rect x="764.5" y="131.5" width="16.2" height="37.7" fill="#3b82f6" fill-opacity="1.0"/><rect x="764.5" y="106.9" width="16.2" height="24.7" fill="#059669" fill-opacity="1.0"/><rect x="788.4" y="169.2" width="16.2" height="9.6" fill="#3b82f6" fill-opacity="1.0"/><rect x="788.4" y="153.9" width="16.2" height="15.3" fill="#059669" fill-opacity="1.0"/><rect x="812.2" y="169.2" width="16.2" height="57.4" fill="#3b82f6" fill-opacity="1.0"/><rect x="812.2" y="154.1" width="16.2" height="15.1" fill="#059669" fill-opacity="1.0"/><rect x="836.0" y="111.6" width="16.2" height="57.6" fill="#3b82f6" fill-opacity="1.0"/><rect x="836.0" y="90.3" width="16.2" height="21.4" fill="#059669" fill-opacity="1.0"/><line x1="212.9" x2="212.9" y1="82" y2="300" stroke="#9ca3af" stroke-width="1" stroke-dasharray="3,3"/><text x="215.9" y="92" font-size="10" fill="#6b7280" stroke="#ffffff" stroke-width="3" paint-order="stroke">v01</text><line x1="236.7" x2="236.7" y1="82" y2="300" stroke="#9ca3af" stroke-width="1" stroke-dasharray="3,3"/><text x="239.7" y="103" font-size="10" fill="#6b7280" stroke="#ffffff" stroke-width="3" paint-order="stroke">v02</text><line x1="260.5" x2="260.5" y1="82" y2="300" stroke="#9ca3af" stroke-width="1" stroke-dasharray="3,3"/><text x="263.5" y="114" font-size="10" fill="#6b7280" stroke="#ffffff" stroke-width="3" paint-order="stroke">v03</text><line x1="284.4" x2="284.4" y1="82" y2="300" stroke="#9ca3af" stroke-width="1" stroke-dasharray="3,3"/><text x="287.4" y="92" font-size="10" fill="#6b7280" stroke="#ffffff" stroke-width="3" paint-order="stroke">v04</text><line x1="308.2" x2="308.2" y1="82" y2="300" stroke="#9ca3af" stroke-width="1" stroke-dasharray="3,3"/><text x="311.2" y="103" font-size="10" fill="#6b7280" stroke="#ffffff" stroke-width="3" paint-order="stroke">v05</text><line x1="308.2" x2="308.2" y1="82" y2="300" stroke="#9ca3af" stroke-width="1" stroke-dasharray="3,3"/><text x="311.2" y="114" font-size="10" fill="#6b7280" stroke="#ffffff" stroke-width="3" paint-order="stroke">v06</text><line x1="451.1" x2="451.1" y1="82" y2="300" stroke="#9ca3af" stroke-width="1" stroke-dasharray="3,3"/><text x="454.1" y="92" font-size="10" fill="#6b7280" stroke="#ffffff" stroke-width="3" paint-order="stroke">v07</text><line x1="474.9" x2="474.9" y1="82" y2="300" stroke="#9ca3af" stroke-width="1" stroke-dasharray="3,3"/><text x="477.9" y="103" font-size="10" fill="#6b7280" stroke="#ffffff" stroke-width="3" paint-order="stroke">v08</text><line x1="522.5" x2="522.5" y1="82" y2="300" stroke="#9ca3af" stroke-width="1" stroke-dasharray="3,3"/><text x="525.5" y="114" font-size="10" fill="#6b7280" stroke="#ffffff" stroke-width="3" paint-order="stroke">v09</text><line x1="641.6" x2="641.6" y1="82" y2="300" stroke="#9ca3af" stroke-width="1" stroke-dasharray="3,3"/><text x="644.6" y="92" font-size="10" fill="#6b7280" stroke="#ffffff" stroke-width="3" paint-order="stroke">v10</text><line x1="689.3" x2="689.3" y1="82" y2="300" stroke="#9ca3af" stroke-width="1" stroke-dasharray="3,3"/><text x="692.3" y="103" font-size="10" fill="#6b7280" stroke="#ffffff" stroke-width="3" paint-order="stroke">v11</text><line x1="713.1" x2="713.1" y1="82" y2="300" stroke="#9ca3af" stroke-width="1" stroke-dasharray="3,3"/><text x="716.1" y="114" font-size="10" fill="#6b7280" stroke="#ffffff" stroke-width="3" paint-order="stroke">v12/13</text><rect x="783.0" y="15" width="12" height="12" rx="2" fill="#d97706"/><text x="800.0" y="25" font-size="11.5" fill="#111827">Rewards</text><rect x="710.0" y="15" width="12" height="12" rx="2" fill="#059669"/><text x="727.0" y="25" font-size="11.5" fill="#111827">Rebates</text><rect x="637.0" y="15" width="12" height="12" rx="2" fill="#3b82f6"/><text x="654.0" y="25" font-size="11.5" fill="#111827">Trading</text><text x="81.9" y="317" font-size="11" text-anchor="middle" fill="#6b7280">Sep 5</text><text x="248.6" y="317" font-size="11" text-anchor="middle" fill="#6b7280">Sep 12</text><text x="415.4" y="317" font-size="11" text-anchor="middle" fill="#6b7280">Sep 19</text><text x="582.1" y="317" font-size="11" text-anchor="middle" fill="#6b7280">Sep 26</text><text x="748.8" y="317" font-size="11" text-anchor="middle" fill="#6b7280">Oct 3</text><text x="844.1" y="317" font-size="11" text-anchor="middle" fill="#6b7280">Oct 7</text></svg>
