<svg xmlns="http://www.w3.org/2000/svg" width="880" height="320" viewBox="0 0 880 320" font-family="-apple-system,BlinkMacSystemFont,Segoe UI,Helvetica,Arial,sans-serif"><rect x="0.5" y="0.5" width="879" height="319" rx="8" fill="#ffffff" stroke="#e5e7eb"/><text x="18" y="24" font-size="15" font-weight="600" fill="#111827">Net P&amp;L by market series</text><text x="18" y="42" font-size="11.5" fill="#6b7280">Trading + rebates + rewards, all versions.</text><line x1="70" x2="856" y1="274.0" y2="274.0" stroke="#e5e7eb" stroke-width="1"/><text x="62" y="278.0" font-size="11" text-anchor="end" fill="#6b7280">−$10</text><line x1="70" x2="856" y1="230.4" y2="230.4" stroke="#9ca3af" stroke-width="1"/><text x="62" y="234.4" font-size="11" text-anchor="end" fill="#6b7280">$0</text><line x1="70" x2="856" y1="186.8" y2="186.8" stroke="#e5e7eb" stroke-width="1"/><text x="62" y="190.8" font-size="11" text-anchor="end" fill="#6b7280">$10</text><line x1="70" x2="856" y1="143.2" y2="143.2" stroke="#e5e7eb" stroke-width="1"/><text x="62" y="147.2" font-size="11" text-anchor="end" fill="#6b7280">$20</text><line x1="70" x2="856" y1="99.6" y2="99.6" stroke="#e5e7eb" stroke-width="1"/><text x="62" y="103.6" font-size="11" text-anchor="end" fill="#6b7280">$30</text><line x1="70" x2="856" y1="56.0" y2="56.0" stroke="#e5e7eb" stroke-width="1"/><text x="62" y="60.0" font-size="11" text-anchor="end" fill="#6b7280">$40</text><rect x="109.3" y="217.9" width="78.6" height="12.5" fill="#3b82f6" fill-opacity="1.0"/><rect x="109.3" y="185.1" width="78.6" height="32.8" fill="#059669" fill-opacity="1.0"/><rect x="109.3" y="182.3" width="78.6" height="2.8" fill="#d97706" fill-opacity="1.0"/><text x="148.6" y="176.3" font-size="10.5" text-anchor="middle" fill="#111827" font-weight="400">net $11</text><rect x="266.5" y="230.4" width="78.6" height="4.7" fill="#3b82f6" fill-opacity="1.0"/><rect x="266.5" y="198.5" width="78.6" height="31.9" fill="#059669" fill-opacity="1.0"/><rect x="266.5" y="194.6" width="78.6" height="3.9" fill="#d97706" fill-opacity="1.0"/><text x="305.8" y="188.6" font-size="10.5" text-anchor="middle" fill="#111827" font-weight="400">net $7.12</text><rect x="423.7" y="230.4" width="78.6" height="3.4" fill="#3b82f6" fill-opacity="1.0"/><rect x="423.7" y="203.5" width="78.6" height="26.9" fill="#059669" fill-opacity="1.0"/><rect x="423.7" y="194.3" width="78.6" height="9.1" fill="#d97706" fill-opacity="1.0"/><text x="463.0" y="188.3" font-size="10.5" text-anchor="middle" fill="#111827" font-weight="400">net $7.5</text><rect x="580.9" y="110.1" width="78.6" height="120.3" fill="#3b82f6" fill-opacity="1.0"/><rect x="580.9" y="71.4" width="78.6" height="38.7" fill="#059669" fill-opacity="1.0"/><rect x="580.9" y="68.2" width="78.6" height="3.2" fill="#d97706" fill-opacity="1.0"/><text x="620.2" y="62.2" font-size="10.5" text-anchor="middle" fill="#111827" font-weight="400">net $37</text><rect x="738.1" y="230.4" width="78.6" height="43.0" fill="#3b82f6" fill-opacity="1.0"/><rect x="738.1" y="200.1" width="78.6" height="30.3" fill="#059669" fill-opacity="1.0"/><rect x="738.1" y="169.6" width="78.6" height="30.5" fill="#d97706" fill-opacity="1.0"/><text x="777.4" y="163.6" font-size="10.5" text-anchor="middle" fill="#111827" font-weight="400">net $4.08</text><rect x="783.0" y="15" width="12" height="12" rx="2" fill="#d97706"/><text x="800.0" y="25" font-size="11.5" fill="#111827">Rewards</text><rect x="710.0" y="15" width="12" height="12" rx="2" fill="#059669"/><text x="727.0" y="25" font-size="11.5" fill="#111827">Rebates</text><rect x="637.0" y="15" width="12" height="12" rx="2" fill="#3b82f6"/><text x="654.0" y="25" font-size="11.5" fill="#111827">Trading</text><text x="148.6" y="291" font-size="11" text-anchor="middle" fill="#6b7280">Series A</text><text x="305.8" y="291" font-size="11" text-anchor="middle" fill="#6b7280">Series B</text><text x="463.0" y="291" font-size="11" text-anchor="middle" fill="#6b7280">Series C</text><text x="620.2" y="291" font-size="11" text-anchor="middle" fill="#6b7280">Series D</text><text x="777.4" y="291" font-size="11" text-anchor="middle" fill="#6b7280">Series E</text></svg>
