<svg xmlns="http://www.w3.org/2000/svg" width="880" height="320" viewBox="0 0 880 320" font-family="-apple-system,BlinkMacSystemFont,Segoe UI,Helvetica,Arial,sans-serif"><rect x="0.5" y="0.5" width="879" height="319" rx="8" fill="#ffffff" stroke="#e5e7eb"/><text x="18" y="24" font-size="15" font-weight="600" fill="#111827">Where the money came from</text><text x="18" y="42" font-size="11.5" fill="#6b7280">Running totals of trading, rebates and rewards.</text><line x1="70" x2="856" y1="274.0" y2="274.0" stroke="#9ca3af" stroke-width="1"/><text x="62" y="278.0" font-size="11" text-anchor="end" fill="#6b7280">$0</text><line x1="70" x2="856" y1="219.5" y2="219.5" stroke="#e5e7eb" stroke-width="1"/><text x="62" y="223.5" font-size="11" text-anchor="end" fill="#6b7280">$10</text><line x1="70" x2="856" y1="165.0" y2="165.0" stroke="#e5e7eb" stroke-width="1"/><text x="62" y="169.0" font-size="11" text-anchor="end" fill="#6b7280">$20</text><line x1="70" x2="856" y1="110.5" y2="110.5" stroke="#e5e7eb" stroke-width="1"/><text x="62" y="114.5" font-size="11" text-anchor="end" fill="#6b7280">$30</text><line x1="70" x2="856" y1="56.0" y2="56.0" stroke="#e5e7eb" stroke-width="1"/><text x="62" y="60.0" font-size="11" text-anchor="end" fill="#6b7280">$40</text><line x1="205.1" x2="205.1" y1="56" y2="274" stroke="#9ca3af" stroke-width="1" stroke-dasharray="3,3"/><text x="208.1" y="66" font-size="10" fill="#6b7280" stroke="#ffffff" stroke-width="3" paint-order="stroke">v01</text><line x1="229.7" x2="229.7" y1="56" y2="274" stroke="#9ca3af" stroke-width="1" stroke-dasharray="3,3"/><text x="232.7" y="77" font-size="10" fill="#6b7280" stroke="#ffffff" stroke-width="3" paint-order="stroke">v02</text><line x1="254.2" x2="254.2" y1="56" y2="274" stroke="#9ca3af" stroke-width="1" stroke-dasharray="3,3"/><text x="257.2" y="88" font-size="10" fill="#6b7280" stroke="#ffffff" stroke-width="3" paint-order="stroke">v03</text><line x1="278.8" x2="278.8" y1="56" y2="274" stroke="#9ca3af" stroke-width="1" stroke-dasharray="3,3"/><text x="281.8" y="66" font-size="10" fill="#6b7280" stroke="#ffffff" stroke-width="3" paint-order="stroke">v04</text><line x1="303.3" x2="303.3" y1="56" y2="274" stroke="#9ca3af" stroke-width="1" stroke-dasharray="3,3"/><text x="306.3" y="77" font-size="10" fill="#6b7280" stroke="#ffffff" stroke-width="3" paint-order="stroke">v05</text><line x1="303.3" x2="303.3" y1="56" y2="274" stroke="#9ca3af" stroke-width="1" stroke-dasharray="3,3"/><text x="306.3" y="88" font-size="10" fill="#6b7280" stroke="#ffffff" stroke-width="3" paint-order="stroke">v06</text><line x1="450.7" x2="450.7" y1="56" y2="274" stroke="#9ca3af" stroke-width="1" stroke-dasharray="3,3"/><text x="453.7" y="66" font-size="10" fill="#6b7280" stroke="#ffffff" stroke-width="3" paint-order="stroke">v07</text><line x1="475.3" x2="475.3" y1="56" y2="274" stroke="#9ca3af" stroke-width="1" stroke-dasharray="3,3"/><text x="478.3" y="77" font-size="10" fill="#6b7280" stroke="#ffffff" stroke-width="3" paint-order="stroke">v08</text><line x1="524.4" x2="524.4" y1="56" y2="274" stroke="#9ca3af" stroke-width="1" stroke-dasharray="3,3"/><text x="527.4" y="88" font-size="10" fill="#6b7280" stroke="#ffffff" stroke-width="3" paint-order="stroke">v09</text><line x1="647.2" x2="647.2" y1="56" y2="274" stroke="#9ca3af" stroke-width="1" stroke-dasharray="3,3"/><text x="650.2" y="66" font-size="10" fill="#6b7280" stroke="#ffffff" stroke-width="3" paint-order="stroke">v10</text><line x1="696.3" x2="696.3" y1="56" y2="274" stroke="#9ca3af" stroke-width="1" stroke-dasharray="3,3"/><text x="699.3" y="77" font-size="10" fill="#6b7280" stroke="#ffffff" stroke-width="3" paint-order="stroke">v11</text><line x1="720.9" x2="720.9" y1="56" y2="274" stroke="#9ca3af" stroke-width="1" stroke-dasharray="3,3"/><text x="723.9" y="88" font-size="10" fill="#6b7280" stroke="#ffffff" stroke-width="3" paint-order="stroke">v12/13</text><path d="M70.0,274.0 L94.6,248.0 L119.1,267.7 L143.7,268.0 L168.2,253.8 L192.8,263.8 L217.4,248.4 L241.9,242.0 L266.5,250.6 L291.1,220.1 L315.6,253.7 L340.2,238.1 L364.8,197.5 L389.3,182.2 L413.9,183.8 L438.4,177.7 L463.0,221.1 L487.6,194.7 L512.1,196.4 L536.7,194.3 L561.2,261.0 L585.8,231.3 L610.4,200.1 L634.9,222.4 L659.5,259.4 L684.1,253.6 L708.6,226.5 L733.2,219.4 L757.8,203.4 L782.3,179.9 L806.9,185.9 L831.4,221.7 L856.0,185.8" fill="none" stroke="#3b82f6" stroke-width="2.2" stroke-linejoin="round"/><path d="M70.0,274.0 L94.6,274.0 L119.1,274.0 L143.7,274.0 L168.2,274.0 L192.8,274.0 L217.4,274.0 L241.9,274.0 L266.5,274.0 L291.1,274.0 L315.6,274.0 L340.2,274.0 L364.8,274.0 L389.3,274.0 L413.9,274.0 L438.4,274.0 L463.0,274.0 L487.6,265.3 L512.1,253.0 L536.7,243.0 L561.2,234.3 L585.8,222.4 L610.4,212.2 L634.9,201.4 L659.5,184.2 L684.1,171.7 L708.6,157.8 L733.2,140.5 L757.8,129.8 L782.3,114.4 L806.9,104.9 L831.4,95.5 L856.0,82.1" fill="none" stroke="#059669" stroke-width="2.2" stroke-linejoin="round"/><path d="M70.0,250.5 L94.6,250.5 L119.1,250.5 L143.7,250.5 L168.2,242.1 L192.8,232.5 L217.4,232.5 L241.9,232.5 L266.5,232.5 L291.1,232.5 L315.6,232.5 L340.2,232.5 L364.8,225.7 L389.3,225.7 L413.9,225.7 L438.4,225.7 L463.0,225.7 L487.6,225.7 L512.1,212.1 L536.7,212.1 L561.2,212.1 L585.8,212.1 L610.4,212.1 L634.9,212.1 L659.5,212.1 L684.1,212.1 L708.6,212.1 L733.2,212.1 L757.8,212.1 L782.3,212.1 L806.9,212.1 L831.4,212.1 L856.0,212.1" fill="none" stroke="#d97706" stroke-width="2.2" stroke-linejoin="round"/><rect x="783.0" y="15" width="12" height="12" rx="2" fill="#d97706"/><text x="800.0" y="25" font-size="11.5" fill="#111827">Rewards</text><rect x="710.0" y="15" width="12" height="12" rx="2" fill="#059669"/><text x="727.0" y="25" font-size="11.5" fill="#111827">Rebates</text><rect x="637.0" y="15" width="12" height="12" rx="2" fill="#3b82f6"/><text x="654.0" y="25" font-size="11.5" fill="#111827">Trading</text><text x="70.0" y="291" font-size="11" text-anchor="middle" fill="#6b7280">Sep 5</text><text x="241.9" y="291" font-size="11" text-anchor="middle" fill="#6b7280">Sep 12</text><text x="413.9" y="291" font-size="11" text-anchor="middle" fill="#6b7280">Sep 19</text><text x="585.8" y="291" font-size="11" text-anchor="middle" fill="#6b7280">Sep 26</text><text x="757.8" y="291" font-size="11" text-anchor="middle" fill="#6b7280">Oct 3</text><text x="856.0" y="291" font-size="11" text-anchor="middle" fill="#6b7280">Oct 7</text></svg>
