<svg xmlns="http://www.w3.org/2000/svg" width="880" height="342" viewBox="0 0 880 342" font-family="-apple-system,BlinkMacSystemFont,Segoe UI,Helvetica,Arial,sans-serif"><rect x="0.5" y="0.5" width="879" height="341" rx="8" fill="#ffffff" stroke="#e5e7eb"/><text x="18" y="24" font-size="15" font-weight="600" fill="#111827">Where the money came from</text><text x="18" y="42" font-size="11.5" fill="#6b7280">Running totals of trading, rebates and rewards. Purple lines mark outside events.</text><line x1="70" x2="856" y1="274.0" y2="274.0" stroke="#9ca3af" stroke-width="1"/><text x="62" y="278.0" font-size="11" text-anchor="end" fill="#6b7280">$0</text><line x1="70" x2="856" y1="219.5" y2="219.5" stroke="#e5e7eb" stroke-width="1"/><text x="62" y="223.5" font-size="11" text-anchor="end" fill="#6b7280">$10</text><line x1="70" x2="856" y1="165.0" y2="165.0" stroke="#e5e7eb" stroke-width="1"/><text x="62" y="169.0" font-size="11" text-anchor="end" fill="#6b7280">$20</text><line x1="70" x2="856" y1="110.5" y2="110.5" stroke="#e5e7eb" stroke-width="1"/><text x="62" y="114.5" font-size="11" text-anchor="end" fill="#6b7280">$30</text><line x1="70" x2="856" y1="56.0" y2="56.0" stroke="#e5e7eb" stroke-width="1"/><text x="62" y="60.0" font-size="11" text-anchor="end" fill="#6b7280">$40</text><line x1="197.1" x2="197.1" y1="56" y2="274" stroke="#9ca3af" stroke-width="1" stroke-dasharray="3,3"/><text x="200.1" y="66" font-size="10" fill="#6b7280" stroke="#ffffff" stroke-width="3" paint-order="stroke">v01</text><line x1="220.3" x2="220.3" y1="56" y2="274" stroke="#9ca3af" stroke-width="1" stroke-dasharray="3,3"/><text x="223.3" y="77" font-size="10" fill="#6b7280" stroke="#ffffff" stroke-width="3" paint-order="stroke">v02</text><line x1="243.4" x2="243.4" y1="56" y2="274" stroke="#9ca3af" stroke-width="1" stroke-dasharray="3,3"/><text x="246.4" y="88" font-size="10" fill="#6b7280" stroke="#ffffff" stroke-width="3" paint-order="stroke">v03</text><line x1="266.5" x2="266.5" y1="56" y2="274" stroke="#9ca3af" stroke-width="1" stroke-dasharray="3,3"/><text x="269.5" y="66" font-size="10" fill="#6b7280" stroke="#ffffff" stroke-width="3" paint-order="stroke">v04</text><line x1="289.6" x2="289.6" y1="56" y2="274" stroke="#9ca3af" stroke-width="1" stroke-dasharray="3,3"/><text x="292.6" y="77" font-size="10" fill="#6b7280" stroke="#ffffff" stroke-width="3" paint-order="stroke">v05</text><line x1="289.6" x2="289.6" y1="56" y2="274" stroke="#9ca3af" stroke-width="1" stroke-dasharray="3,3"/><text x="292.6" y="88" font-size="10" fill="#6b7280" stroke="#ffffff" stroke-width="3" paint-order="stroke">v06</text><line x1="428.3" x2="428.3" y1="56" y2="274" stroke="#9ca3af" stroke-width="1" stroke-dasharray="3,3"/><text x="431.3" y="66" font-size="10" fill="#6b7280" stroke="#ffffff" stroke-width="3" paint-order="stroke">v07</text><line x1="451.4" x2="451.4" y1="56" y2="274" stroke="#9ca3af" stroke-width="1" stroke-dasharray="3,3"/><text x="454.4" y="77" font-size="10" fill="#6b7280" stroke="#ffffff" stroke-width="3" paint-order="stroke">v08</text><line x1="497.7" x2="497.7" y1="56" y2="274" stroke="#9ca3af" stroke-width="1" stroke-dasharray="3,3"/><text x="500.7" y="88" font-size="10" fill="#6b7280" stroke="#ffffff" stroke-width="3" paint-order="stroke">v09</text><line x1="613.3" x2="613.3" y1="56" y2="274" stroke="#9ca3af" stroke-width="1" stroke-dasharray="3,3"/><text x="616.3" y="66" font-size="10" fill="#6b7280" stroke="#ffffff" stroke-width="3" paint-order="stroke">v10</text><line x1="659.5" x2="659.5" y1="56" y2="274" stroke="#9ca3af" stroke-width="1" stroke-dasharray="3,3"/><text x="662.5" y="77" font-size="10" fill="#6b7280" stroke="#ffffff" stroke-width="3" paint-order="stroke">v11</text><line x1="682.6" x2="682.6" y1="56" y2="274" stroke="#9ca3af" stroke-width="1" stroke-dasharray="3,3"/><text x="685.6" y="88" font-size="10" fill="#6b7280" stroke="#ffffff" stroke-width="3" paint-order="stroke">v12/13</text><line x1="844.4" x2="844.4" y1="56" y2="274" stroke="#9ca3af" stroke-width="1" stroke-dasharray="3,3"/><text x="847.4" y="66" font-size="10" fill="#6b7280" stroke="#ffffff" stroke-width="3" paint-order="stroke">v14/15</text><line x1="451.4" x2="451.4" y1="56" y2="274" stroke="#7c3aed" stroke-width="1.3" opacity="0.9"/><circle cx="451.4" cy="265.0" r="7" fill="#7c3aed"/><text x="451.4" y="268.3" font-size="9" font-weight="600" text-anchor="middle" fill="#ffffff">1</text><line x1="497.7" x2="497.7" y1="56" y2="274" stroke="#7c3aed" stroke-width="1.3" opacity="0.9"/><circle cx="497.7" cy="265.0" r="7" fill="#7c3aed"/><text x="497.7" y="268.3" font-size="9" font-weight="600" text-anchor="middle" fill="#ffffff">2</text><line x1="844.4" x2="844.4" y1="56" y2="274" stroke="#7c3aed" stroke-width="1.3" opacity="0.9"/><circle cx="844.4" cy="265.0" r="7" fill="#7c3aed"/><text x="844.4" y="268.3" font-size="9" font-weight="600" text-anchor="middle" fill="#ffffff">3</text><circle cx="77.0" cy="322.0" r="7" fill="#7c3aed"/><text x="77.0" y="325.3" font-size="9" font-weight="600" text-anchor="middle" fill="#ffffff">1</text><text x="88.0" y="326.0" font-size="11" fill="#7c3aed">Rebate on</text><circle cx="176.4" cy="322.0" r="7" fill="#7c3aed"/><text x="176.4" y="325.3" font-size="9" font-weight="600" text-anchor="middle" fill="#ffffff">2</text><text x="187.4" y="326.0" font-size="11" fill="#7c3aed">Rewards cut</text><circle cx="289.0" cy="322.0" r="7" fill="#7c3aed"/><text x="289.0" y="325.3" font-size="9" font-weight="600" text-anchor="middle" fill="#ffffff">3</text><text x="300.0" y="326.0" font-size="11" fill="#7c3aed">Rewards test</text><path d="M70.0,274.0 L93.1,248.0 L116.2,267.7 L139.4,268.0 L162.5,253.8 L185.6,263.8 L208.7,248.4 L231.8,242.0 L254.9,250.6 L278.1,220.1 L301.2,253.7 L324.3,238.1 L347.4,197.5 L370.5,182.2 L393.6,183.8 L416.8,177.7 L439.9,221.1 L463.0,194.7 L486.1,196.4 L509.2,194.3 L532.4,261.0 L555.5,231.3 L578.6,200.1 L601.7,222.4 L624.8,259.4 L647.9,253.6 L671.1,226.5 L694.2,219.4 L717.3,203.4 L740.4,179.9 L763.5,185.9 L786.6,221.7 L809.8,185.8 L832.9,171.9 L856.0,180.0" fill="none" stroke="#3b82f6" stroke-width="2.2" stroke-linejoin="round"/><path d="M70.0,274.0 L93.1,274.0 L116.2,274.0 L139.4,274.0 L162.5,274.0 L185.6,274.0 L208.7,274.0 L231.8,274.0 L254.9,274.0 L278.1,274.0 L301.2,274.0 L324.3,274.0 L347.4,274.0 L370.5,274.0 L393.6,274.0 L416.8,274.0 L439.9,274.0 L463.0,265.3 L486.1,253.0 L509.2,243.0 L532.4,234.3 L555.5,222.4 L578.6,212.2 L601.7,201.4 L624.8,184.2 L647.9,171.7 L671.1,157.8 L694.2,140.5 L717.3,129.8 L740.4,114.4 L763.5,104.9 L786.6,95.5 L809.8,82.1 L832.9,73.2 L856.0,60.3" fill="none" stroke="#059669" stroke-width="2.2" stroke-linejoin="round"/><path d="M70.0,250.5 L93.1,250.5 L116.2,250.5 L139.4,250.5 L162.5,242.1 L185.6,232.5 L208.7,232.5 L231.8,232.5 L254.9,232.5 L278.1,232.5 L301.2,232.5 L324.3,232.5 L347.4,225.7 L370.5,225.7 L393.6,225.7 L416.8,225.7 L439.9,225.7 L463.0,225.7 L486.1,212.1 L509.2,212.1 L532.4,212.1 L555.5,212.1 L578.6,212.1 L601.7,212.1 L624.8,212.1 L647.9,212.1 L671.1,212.1 L694.2,212.1 L717.3,212.1 L740.4,212.1 L763.5,212.1 L786.6,212.1 L809.8,212.1 L832.9,212.1 L856.0,212.1" fill="none" stroke="#d97706" stroke-width="2.2" stroke-linejoin="round"/><rect x="783.0" y="15" width="12" height="12" rx="2" fill="#d97706"/><text x="800.0" y="25" font-size="11.5" fill="#111827">Rewards</text><rect x="710.0" y="15" width="12" height="12" rx="2" fill="#059669"/><text x="727.0" y="25" font-size="11.5" fill="#111827">Rebates</text><rect x="637.0" y="15" width="12" height="12" rx="2" fill="#3b82f6"/><text x="654.0" y="25" font-size="11.5" fill="#111827">Trading</text><text x="70.0" y="291" font-size="11" text-anchor="middle" fill="#6b7280">Sep 5</text><text x="231.8" y="291" font-size="11" text-anchor="middle" fill="#6b7280">Sep 12</text><text x="393.6" y="291" font-size="11" text-anchor="middle" fill="#6b7280">Sep 19</text><text x="555.5" y="291" font-size="11" text-anchor="middle" fill="#6b7280">Sep 26</text><text x="717.3" y="291" font-size="11" text-anchor="middle" fill="#6b7280">Oct 3</text><text x="856.0" y="291" font-size="11" text-anchor="middle" fill="#6b7280">Oct 9</text></svg>
